<svg version="1.2" xmlns="http://www.w3.org/2000/svg" viewBox="0 0 1000 1000" width="256" height="256">
	<title>121</title>
	<style>
		.s0 { fill: #0a000f } 
	</style>
	<path id="&lt;Compound Path&gt;" fill-rule="evenodd" class="s0" d="m690.8 991.6h-381c-165.8 0-300.8-134.9-300.8-300.8v-381c0-165.8 135-300.8 300.8-300.8h381c165.9 0 300.8 135 300.8 300.8v381c0 165.9-134.9 300.8-300.8 300.8zm-381-909c-125.3 0-227.2 101.9-227.2 227.2v381c0 125.3 101.9 227.3 227.2 227.3h381c125.3 0 227.3-102 227.3-227.3v-381c0-125.3-102-227.2-227.3-227.2zm190.5 666.3c-137.5 0-248.6-111.1-248.6-248.6 0-137.4 111.1-248.5 248.6-248.5 137.4 0 248.5 111.1 248.5 248.5 0 137.5-111.1 248.6-248.5 248.6zm173.2-248.6c0-95.8-77.4-173.2-173.2-173.2-95.8 0-173.2 77.4-173.2 173.2 0 95.8 77.4 173.2 173.2 173.2 95.8 0 173.2-77.4 173.2-173.2zm102.4-210.9c-35.8 0-64.7-28.9-64.7-64.7 0-35.8 28.9-64.7 64.7-64.7 35.8 0 64.7 28.9 64.7 64.7 0 35.8-28.9 64.7-64.7 64.7z"/>
</svg>